<?xml version="1.0" encoding="UTF-8" standalone="no"?><!DOCTYPE svg PUBLIC "-//W3C//DTD SVG 1.1//EN" "http://www.w3.org/Graphics/SVG/1.1/DTD/svg11.dtd"><svg width="100%" height="100%" viewBox="0 0 33 32" version="1.1" xmlns="http://www.w3.org/2000/svg" xmlns:xlink="http://www.w3.org/1999/xlink" xml:space="preserve" xmlns:serif="http://www.serif.com/" style="fill-rule:evenodd;clip-rule:evenodd;stroke-linejoin:round;stroke-miterlimit:2;"><rect id="Favicon_CSK" x="0.182" y="0" width="32" height="32" style="fill:none;"/><g><g id="ČSK-UHERSKÝ-BROD" serif:id="ČSK UHERSKÝ BROD"><path d="M6.296,6.565l1.663,-1.527l2.727,0l1.691,1.527l0,1.878l-2.14,0l0,-1.262l-1.798,-0l-0,6.645l1.798,0l0,-1.278l2.14,0l0,1.879l-1.691,1.526l-2.727,0l-1.663,-1.526l0,-7.862Z" style="fill:#fff;fill-rule:nonzero;"/><path d="M13.155,6.565l1.683,-1.527l2.707,0l1.691,1.511l-0,1.691l-2.135,0l-0,-1.059l-1.804,-0l0,2.247l2.248,0l1.691,1.075l-0,3.908l-1.691,1.542l-2.707,0l-1.683,-1.526l-0,-1.676l2.142,0l0,1.075l1.804,0l-0,-2.263l-2.263,0l-1.683,-1.06l-0,-3.938Z" style="fill:#fff;fill-rule:nonzero;"/><path d="M20.203,5.038l2.143,0l-0,4.344l1.413,-4.344l1.971,0l-1.678,5.052l2.016,5.863l-2.091,0l-1.631,-5.067l-0,5.067l-2.143,0l-0,-10.915Z" style="fill:#fff;fill-rule:nonzero;"/><path d="M15.714,18.798l0,9.388l-1.698,1.527l-2.707,-0l-1.676,-1.527l0,-9.388l2.135,-0l-0,8.788l1.804,-0l-0,-8.788l2.142,-0Z" style="fill:#fff;fill-rule:nonzero;"/><path d="M16.676,18.798l4.39,-0l1.691,1.527l0,2.863l-1.095,1.06l1.095,1.075l0,2.848l-1.691,1.542l-4.39,-0l0,-10.915Zm2.143,4.39l1.798,-0l0,-2.248l-1.798,0l-0,2.248Zm1.798,2.135l-1.798,-0l-0,2.263l1.798,-0l0,-2.263Z" style="fill:#fff;fill-rule:nonzero;"/></g><g id="ČSK-UHERSKÝ-BROD1" serif:id="ČSK UHERSKÝ BROD"><path d="M6.296,5.793l1.663,-1.527l2.727,-0l1.691,1.527l0,1.878l-2.14,-0l0,-1.263l-1.798,0l-0,6.646l1.798,-0l0,-1.278l2.14,0l0,1.878l-1.691,1.527l-2.727,-0l-1.663,-1.527l0,-7.861Z" style="fill:#e7000d;fill-rule:nonzero;"/><path d="M13.155,5.793l1.683,-1.527l2.707,-0l1.691,1.511l-0,1.691l-2.135,0l-0,-1.06l-1.804,0l0,2.248l2.248,0l1.691,1.075l-0,3.908l-1.691,1.542l-2.707,-0l-1.683,-1.527l-0,-1.675l2.142,-0l0,1.075l1.804,-0l-0,-2.263l-2.263,-0l-1.683,-1.06l-0,-3.938Z" style="fill:#e7000d;fill-rule:nonzero;"/><path d="M20.203,4.266l2.143,-0l-0,4.344l1.413,-4.344l1.971,-0l-1.678,5.052l2.016,5.863l-2.091,-0l-1.631,-5.068l-0,5.068l-2.143,-0l-0,-10.915Z" style="fill:#e7000d;fill-rule:nonzero;"/><path d="M15.714,18.026l0,9.388l-1.698,1.527l-2.707,-0l-1.676,-1.527l0,-9.388l2.135,-0l-0,8.788l1.804,-0l-0,-8.788l2.142,-0Z" style="fill:#e7000d;fill-rule:nonzero;"/><path d="M16.676,18.026l4.39,-0l1.691,1.526l0,2.864l-1.095,1.059l1.095,1.076l0,2.847l-1.691,1.543l-4.39,-0l0,-10.915Zm2.143,4.39l1.798,-0l0,-2.248l-1.798,0l-0,2.248Zm1.798,2.135l-1.798,-0l-0,2.263l1.798,-0l0,-2.263Z" style="fill:#e7000d;fill-rule:nonzero;"/><path d="M10.685,3.459l0.856,-1.172l-1.772,0l-0.34,0.567l-0.354,-0.567l-1.843,0l0.856,1.172l2.597,0Z" style="fill:#e7000d;fill-rule:nonzero;"/></g></g></svg>